<svg width="96" height="96" viewBox="0 0 96 96" fill="none" xmlns="http://www.w3.org/2000/svg">
<path d="M55.3202 76C54.7226 76.002 54.1321 75.8701 53.5922 75.614C53.0523 75.3579 52.5766 74.9841 52.2002 74.52L32.8802 50.52C32.2918 49.8043 31.9702 48.9065 31.9702 47.98C31.9702 47.0535 32.2918 46.1557 32.8802 45.44L52.8802 21.44C53.5591 20.6231 54.5348 20.1094 55.5925 20.0119C56.6502 19.9144 57.7033 20.241 58.5202 20.92C59.337 21.599 59.8507 22.5746 59.9482 23.6323C60.0458 24.69 59.7191 25.7431 59.0402 26.56L41.1602 48L58.4402 69.44C58.9293 70.0271 59.24 70.7421 59.3355 71.5003C59.431 72.2585 59.3074 73.0282 58.9792 73.7183C58.6509 74.4084 58.1319 74.9901 57.4834 75.3944C56.835 75.7988 56.0843 76.0089 55.3202 76Z" fill="white" fill-opacity="0.56"/>
</svg>
