<svg width="67" height="67" viewBox="0 0 67 67" fill="none" xmlns="http://www.w3.org/2000/svg">
<g clip-path="url(#clip0_17_75)">
<path d="M56.5777 32.7556C53.2277 29.2194 48.761 26.8 44.1083 25.8694C42.0611 25.3111 40.0138 24.9389 37.9666 24.7528C43.1777 18.6111 42.2472 9.30556 36.1055 4.09445C29.9638 -1.11667 20.6583 -0.18611 15.4472 5.95556C10.236 12.0972 11.1666 21.4028 17.3083 26.6139C18.4249 27.5444 19.5416 28.2889 20.6583 28.6611V32.7556L17.6805 29.9639C15.0749 27.3583 10.7944 27.3583 8.00272 29.9639C5.39716 32.5694 5.21105 36.6639 7.8166 39.2695L16.3777 49.3195C16.7499 51.925 17.6805 54.3444 18.9833 56.5778C19.9138 58.2528 21.2166 59.9278 22.5194 61.2306V64.7667C22.5194 65.8833 23.2638 66.6278 24.3805 66.6278H49.6916C50.6222 66.6278 51.5527 65.6972 51.5527 64.7667V59.9278C55.0888 55.6472 56.9499 50.25 56.9499 44.8528V34.0583C57.136 33.3139 56.9499 32.9417 56.5777 32.7556ZM15.6333 15.2611C15.6333 9.11945 20.6583 4.28056 26.7999 4.46667C32.9416 4.46667 37.7805 9.49167 37.5944 15.6333C37.5944 18.9833 36.1055 21.9611 33.4999 24.0083V14.7028C33.4049 13.0899 32.6965 11.5744 31.52 10.4671C30.3434 9.35977 28.7878 8.74443 27.1722 8.74722C23.8222 8.56111 20.8444 11.3528 20.8444 14.7028V24.3806C17.6805 22.5194 15.8194 18.9833 15.6333 15.2611ZM53.4138 44.6667C53.5999 49.5056 51.9249 54.1583 48.761 57.8806C48.3888 58.2528 48.0166 58.625 48.0166 59.1833V63.0917H26.4277V60.4861C26.4277 59.9278 26.0555 59.3694 25.6833 58.9972C24.3805 57.8806 23.2638 56.5778 22.3333 54.9028C21.2166 53.0417 20.4722 50.8083 20.0999 48.575C20.0999 48.2028 19.9138 47.8306 19.7277 47.4583L10.7944 36.85C10.236 36.2917 9.86383 35.5472 9.86383 34.6167C9.86383 33.8722 10.236 32.9417 10.7944 32.3833C12.0972 31.2667 13.9583 31.2667 15.261 32.3833L20.6583 37.7806V43.3639L24.1944 41.5028V14.7028C24.3805 13.4 25.4972 12.2833 26.986 12.4694C28.2888 12.4694 29.5916 13.4 29.5916 14.7028V36.1056L33.3138 36.85V28.2889C33.4999 28.1028 33.686 28.1028 33.8722 27.9167C35.1749 27.9167 36.4777 28.1028 37.7805 28.2889V37.7806L40.7583 38.3389V28.6611L42.9916 29.2194C43.9222 29.4056 44.8527 29.7778 45.7833 30.15V39.4556L48.761 40.0139V31.4528C50.4361 32.1972 51.9249 33.3139 53.2277 34.6167L53.4138 44.6667Z" fill="#F8F8F8"/>
</g>
<defs>
<clipPath id="clip0_17_75">
<rect width="67" height="67" fill="white"/>
</clipPath>
</defs>
</svg>
