<svg width="77" height="67" viewBox="0 0 77 67" fill="none" xmlns="http://www.w3.org/2000/svg">
<path d="M39.7695 15.4032C39.6151 15.9209 39.91 16.4649 40.4274 16.6192L40.5296 16.6497L40.534 16.6446C41.0194 16.7326 41.5009 16.442 41.6435 15.9606C42.9427 11.5952 47.0358 8.54548 51.5961 8.54548C52.136 8.54548 52.5739 8.10759 52.5739 7.56771C52.5739 7.02781 52.136 6.58994 51.5961 6.58994C45.9915 6.58994 41.2818 10.3215 39.7695 15.4032ZM39.7695 15.4032L39.9289 15.4508M39.7695 15.4032C39.7695 15.4033 39.7695 15.4033 39.7695 15.4033L39.9289 15.4508M39.9289 15.4508C39.8008 15.8802 40.0454 16.3317 40.4749 16.4598L39.9289 15.4508Z" fill="white" stroke="#F9FFF9" stroke-width="0.332673"/>
<path d="M62.9554 47.3278H58.0869C57.6389 47.3278 57.2755 46.9644 57.2755 46.5163C57.2755 46.0683 57.6389 45.7049 58.0869 45.7049H62.9554C69.6664 45.7049 75.1268 40.2445 75.1268 33.5335C75.1268 26.8225 69.6664 21.3622 62.9554 21.3622H62.8383C62.603 21.3622 62.3793 21.2602 62.2251 21.0823C62.071 20.9043 62.0014 20.6684 62.035 20.4354C62.1075 19.93 62.144 19.4223 62.144 18.9279C62.144 13.1118 57.4116 8.37936 51.5954 8.37936C49.3327 8.37936 47.1749 9.08646 45.3549 10.4247C44.955 10.7186 44.387 10.5882 44.1558 10.1482C39.0015 0.333535 25.5391 -0.984481 18.5596 7.55346C15.6194 11.1504 14.4641 15.8294 15.3898 20.3897C15.4919 20.8933 15.1064 21.3628 14.5946 21.3628H14.2695C7.5585 21.3628 2.09815 26.8232 2.09815 33.5342C2.09815 40.2452 7.5585 45.7055 14.2695 45.7055H19.138C19.586 45.7055 19.9494 46.0689 19.9494 46.5169C19.9494 46.965 19.586 47.3284 19.138 47.3284H14.2695C6.6635 47.3284 0.47522 41.1401 0.47522 33.5341C0.47522 26.1415 6.3209 20.0882 13.6325 19.7544C12.9457 15.0231 14.2591 10.2508 17.303 6.52644C24.7756 -2.61539 39.0963 -1.59071 45.15 8.6031C47.0813 7.39233 49.2912 6.75716 51.5952 6.75716C58.6418 6.75716 64.2256 12.7548 63.737 19.7619C70.9812 20.1682 76.7493 26.1895 76.7493 33.5335C76.7493 41.1401 70.5611 47.3278 62.955 47.3278L62.9554 47.3278Z" fill="white"/>
<path d="M18.0514 46.0581C18.0514 57.3357 27.2262 66.5103 38.5036 66.5103C49.7812 66.5103 58.9558 57.3355 58.9558 46.0581C58.9558 34.7806 49.7812 25.6059 38.5036 25.6059C27.226 25.6059 18.0514 34.7807 18.0514 46.0581ZM20.0073 46.0581C20.0073 35.8596 28.3049 27.5618 38.5036 27.5618C48.7021 27.5618 56.9999 35.8594 56.9999 46.0581C56.9999 56.2567 48.7021 64.5544 38.5036 64.5544C28.3051 64.5544 20.0073 56.2568 20.0073 46.0581Z" fill="white" stroke="#F9FFF9" stroke-width="0.332673"/>
<path d="M38.1141 54.2244C38.1141 54.6443 38.4546 54.9848 38.8745 54.9848C39.2942 54.9848 39.6348 54.6448 39.6348 54.2244V38.7789C39.6348 38.359 39.2943 38.0185 38.8745 38.0185C38.4546 38.0185 38.1141 38.359 38.1141 38.7789V54.2244Z" fill="white" stroke="white" stroke-width="0.332673"/>
<path d="M38.8744 39.8556L34.6598 44.0702C34.3631 44.3675 33.8813 44.3673 33.5843 44.0703C33.2872 43.7733 33.2872 43.292 33.5843 42.9949L38.3366 38.2426C38.3366 38.2426 38.3366 38.2426 38.3367 38.2425C38.6334 37.9454 39.1151 37.9456 39.4121 38.2425L44.1645 42.9949C44.4615 43.2919 44.4615 43.773 44.1647 44.0701C44.0161 44.2192 43.8207 44.293 43.6268 44.293L38.8744 39.8556ZM38.8744 39.8556L43.0891 44.0703C43.2374 44.2186 43.4326 44.293 43.6268 44.293L38.8744 39.8556Z" fill="white" stroke="white" stroke-width="0.332673"/>
</svg>
